<svg xmlns="http://www.w3.org/2000/svg" viewBox="0 0 408 408"><defs><style>.cls-1,.cls-2{fill:none;stroke:#040000;stroke-linecap:round;stroke-miterlimit:10;}.cls-1{stroke-width:4px;}.cls-2{stroke-width:8px;}</style></defs><title>アセット 1</title><g id="レイヤー_2" data-name="レイヤー 2"><g id="レイヤー_1-2" data-name="レイヤー 1"><path class="cls-1" d="M129.3,389.58s19.08-56.54,24.69-86c4.56-16.49,6.67-18.95,18.24-22.45,10-3,23.84-8.12,30.64-7.91a3,3,0,0,0,3.14-2.58c1.1-8.28,1.58-16.92,1-20"/><path class="cls-1" d="M196.47,358.56a.92.92,0,0,1,1.57-.88c4.37,4.73,13.41,12.75,20.84,7.8,8.86-5.91,46.19-40.8,55.83-49.85a1.51,1.51,0,0,1,2.54,1.13c0,6-2.49,12.85-10.79,23.51-9.86,12.65-38.4,49.35-51,48C205.65,387.19,198.94,367.22,196.47,358.56Z"/><path class="cls-1" d="M330.07,359.27s-.3-2.71-2.75-10.78-15.09-33.33-21.05-42.1S294,281.48,288.38,274.81s-9.82-11.58-20.7-9.47-22.81,2.46-24.21,2.11-9.12-12.28-9.12-16.84"/><path class="cls-1" d="M171.19,267.08s20.7,29.12,57.19,28.07,54-42.1,54-42.1"/><path class="cls-1" d="M149.79,193.75s14.39,56.14,77,56.84c16.31,0,36-2.81,38.77-15.09s-1.05-32.28-3.86-58.24c-2.45-22.65-5.7-44.76-5.79-51.9a2.37,2.37,0,0,0-2.15-2.32c-6.09-.62-17.53-2.79-23.64-13.49"/><path class="cls-1" d="M169.08,125.69s.35,33-15.09,28.42"/><path class="cls-1" d="M154,140.11s6.32,17.15-8.77,29.43"/><path class="cls-1" d="M149.79,175.51s-6.67-10.53-13.68,0S124.18,191.29,149.79,212"/><path class="cls-1" d="M116.46,143.23s-.7,26.31,16.14,33"/><path class="cls-1" d="M260.66,149.55s9.47-9.47,13.33-6.32,13.68,26.31-6.67,34.38"/><path class="cls-1" d="M266.55,100.08s9.2,14.74,5.34,25.61-5.34,13-5.34,13"/><path class="cls-1" d="M51.9,157.72s63.15-15.36,76.84-19.61"/><path d="M271.32,100.92a1.51,1.51,0,0,0,1-2.16C269.52,93.32,260,76,245.92,66.11c-16.83-11.81-41.1-26.22-61.47-26.34s-36.71,5.95-54.6,30.67c-16.44,22.71-24.36,64.14-23.81,74.22a1.52,1.52,0,0,0,2,1.38C137.64,136.71,255.39,105.18,271.32,100.92Z"/><path class="cls-1" d="M222.41,122.53s-10.17,10.53-24.56,9.12"/><path class="cls-1" d="M215.39,196.56s14,3.51,14.39-2.11-3.17-22.1-7.2-34.73S212,129.36,212,129.36"/><ellipse cx="242.94" cy="150.13" rx="4.76" ry="6.14" transform="translate(-28.64 61.79) rotate(-13.7)"/><ellipse cx="190.57" cy="160.1" rx="4.76" ry="6.14" transform="translate(-32.49 49.68) rotate(-13.7)"/><path class="cls-1" d="M234.5,218.82s1.36,6-10.32,4.89-22.8-4.62-28-10.59"/><circle class="cls-2" cx="204" cy="204" r="200"/></g></g></svg>