<svg xmlns="http://www.w3.org/2000/svg" viewBox="0 0 532.76 61.86"><defs><style>.cls-1{fill:#191919;}</style></defs><title>アセット 1</title><g id="レイヤー_2" data-name="レイヤー 2"><g id="レイヤー_1-2" data-name="レイヤー 1"><path class="cls-1" d="M0,16V.14H2.26V16Z"/><path class="cls-1" d="M17.94,16V2.27H15.32V.14h7.5V2.27H20.2V16Z"/><path class="cls-1" d="M52,16V.14h2.26V16Z"/><path class="cls-1" d="M75.77,4.69H73.51V4.18a2.34,2.34,0,0,0-.37-1.34,1.34,1.34,0,0,0-1.23-.57,1.45,1.45,0,0,0-.76.18,1.65,1.65,0,0,0-.47.44,1.93,1.93,0,0,0-.25.66,4.69,4.69,0,0,0-.07.77q0,.46,0,.78a1.47,1.47,0,0,0,.17.56,1.29,1.29,0,0,0,.39.42,3.44,3.44,0,0,0,.7.36l1.73.69a4.24,4.24,0,0,1,1.22.68,2.84,2.84,0,0,1,.73.9,4.29,4.29,0,0,1,.33,1.21,11.83,11.83,0,0,1,.09,1.54,8.26,8.26,0,0,1-.2,1.85,3.93,3.93,0,0,1-.64,1.45,3.29,3.29,0,0,1-1.22,1,4.26,4.26,0,0,1-1.84.35,4,4,0,0,1-1.53-.29A3.64,3.64,0,0,1,69.1,15a3.92,3.92,0,0,1-.81-1.19,3.59,3.59,0,0,1-.3-1.48v-.84h2.26v.71a1.82,1.82,0,0,0,.37,1.12,1.43,1.43,0,0,0,1.23.5,2,2,0,0,0,.9-.17,1.22,1.22,0,0,0,.5-.48,1.69,1.69,0,0,0,.21-.74c0-.29,0-.61,0-1a9.58,9.58,0,0,0,0-1,1.68,1.68,0,0,0-.18-.64,1.21,1.21,0,0,0-.41-.4,6.27,6.27,0,0,0-.68-.33L70.56,8.4a3.55,3.55,0,0,1-2-1.59,5.5,5.5,0,0,1-.5-2.48,5.9,5.9,0,0,1,.24-1.69,4,4,0,0,1,.73-1.38A3.43,3.43,0,0,1,70.26.34,3.94,3.94,0,0,1,72,0a3.69,3.69,0,0,1,1.54.31,4,4,0,0,1,1.21.82,3.44,3.44,0,0,1,1,2.44V4.69Z"/><path class="cls-1" d="M104.55,16,108.08.14H110L113.5,16h-2.26l-.67-3.4h-3.09l-.67,3.4Zm5.59-5.53L109,4.69h0l-1.11,5.73Z"/><path class="cls-1" d="M142.71,16V.14h6.75V2.27H145v4.8h3.91V9.2H145V16Z"/><path class="cls-1" d="M162.92,16V.14h3.64c2.66,0,4,1.55,4,4.64a5.89,5.89,0,0,1-.43,2.38,3.35,3.35,0,0,1-1.52,1.58L171.05,16h-2.4l-2.11-6.75h-1.35V16h-2.27Zm2.26-13.68V7.2h1.29a2.24,2.24,0,0,0,.95-.17,1.31,1.31,0,0,0,.56-.48,2.05,2.05,0,0,0,.24-.77,7.9,7.9,0,0,0,.07-1,6.51,6.51,0,0,0-.07-1.05,2,2,0,0,0-.27-.79,1.81,1.81,0,0,0-1.6-.62Z"/><path class="cls-1" d="M184.36,16V.14h6.75V2.27h-4.48V6.91h3.91V9h-3.91v4.64h4.48v2.26h-6.75Z"/><path class="cls-1" d="M204.57,16V.14h6.75V2.27h-4.48V6.91h3.91V9h-3.91v4.64h4.48v2.26h-6.75Z"/><path class="cls-1" d="M224.77,16V.14H227V13.68h4.48v2.26h-6.74Z"/><path class="cls-1" d="M244,16,247.48.14h1.89L252.9,16h-2.26l-.67-3.4h-3.09l-.67,3.4Zm5.6-5.53-1.11-5.73h0l-1.11,5.73Z"/><path class="cls-1" d="M265.91,16V.14h2.18l3.42,9.53h0V.14h2.26V16h-2.13l-3.46-9.5h0V16Z"/><path class="cls-1" d="M295,11.44v1a3.45,3.45,0,0,1-.28,1.39A4,4,0,0,1,294,15a3.82,3.82,0,0,1-1.14.81,3.37,3.37,0,0,1-1.41.3,5,5,0,0,1-1.31-.18,3.13,3.13,0,0,1-1.2-.62,3.48,3.48,0,0,1-.88-1.14,4.05,4.05,0,0,1-.34-1.79V3.66A3.77,3.77,0,0,1,288,2.22a3.47,3.47,0,0,1,.75-1.15A3.66,3.66,0,0,1,289.91.3a4,4,0,0,1,1.5-.28,3.46,3.46,0,0,1,2.6,1,3.66,3.66,0,0,1,.76,1.21,4,4,0,0,1,.28,1.52v.89h-2.26V3.93a1.81,1.81,0,0,0-.38-1.15,1.21,1.21,0,0,0-1-.49,1.14,1.14,0,0,0-1.12.52A2.75,2.75,0,0,0,290,4.13v8.08a2.07,2.07,0,0,0,.3,1.15,1.19,1.19,0,0,0,1.08.47,1.72,1.72,0,0,0,.48-.08,1.57,1.57,0,0,0,.48-.25,1.4,1.4,0,0,0,.33-.49,2,2,0,0,0,.13-.78v-.79Z"/><path class="cls-1" d="M308.87,16V.14h6.75V2.27h-4.48V6.91h3.91V9h-3.91v4.64h4.48v2.26h-6.75Z"/><path class="cls-1" d="M345.2,16V.14h3.35a3.89,3.89,0,0,1,3,1.07,4.24,4.24,0,0,1,1,3v7.39a4.38,4.38,0,0,1-1.08,3.27,4.26,4.26,0,0,1-3.1,1H345.2Zm2.26-13.68V13.81h1a1.65,1.65,0,0,0,1.35-.48,2.3,2.3,0,0,0,.4-1.5V4.21a2.4,2.4,0,0,0-.38-1.44,1.61,1.61,0,0,0-1.38-.51h-1Z"/><path class="cls-1" d="M366.64,16V.14h6.75V2.27h-4.48V6.91h3.91V9h-3.91v4.64h4.48v2.26h-6.75Z"/><path class="cls-1" d="M394.17,4.69h-2.26V4.18a2.34,2.34,0,0,0-.37-1.34,1.34,1.34,0,0,0-1.23-.57,1.45,1.45,0,0,0-.76.18,1.65,1.65,0,0,0-.47.44,1.93,1.93,0,0,0-.25.66,4.69,4.69,0,0,0-.07.77q0,.46,0,.78a1.47,1.47,0,0,0,.17.56,1.29,1.29,0,0,0,.39.42,3.44,3.44,0,0,0,.7.36l1.73.69a4.24,4.24,0,0,1,1.22.68,2.84,2.84,0,0,1,.73.9,4.29,4.29,0,0,1,.33,1.21,11.83,11.83,0,0,1,.09,1.54,8.26,8.26,0,0,1-.2,1.85,3.93,3.93,0,0,1-.64,1.45,3.29,3.29,0,0,1-1.22,1,4.26,4.26,0,0,1-1.84.35,4,4,0,0,1-1.53-.29,3.64,3.64,0,0,1-1.22-.8,3.92,3.92,0,0,1-.81-1.19,3.59,3.59,0,0,1-.3-1.48v-.84h2.26v.71a1.82,1.82,0,0,0,.37,1.12,1.43,1.43,0,0,0,1.23.5,2,2,0,0,0,.9-.17,1.22,1.22,0,0,0,.5-.48,1.69,1.69,0,0,0,.21-.74c0-.29,0-.61,0-1a9.58,9.58,0,0,0,0-1,1.68,1.68,0,0,0-.18-.64,1.21,1.21,0,0,0-.41-.4,6.27,6.27,0,0,0-.68-.33L389,8.4a3.55,3.55,0,0,1-2-1.59,5.5,5.5,0,0,1-.5-2.48,5.9,5.9,0,0,1,.24-1.69,4,4,0,0,1,.73-1.38,3.43,3.43,0,0,1,1.19-.92A3.94,3.94,0,0,1,390.38,0a3.69,3.69,0,0,1,1.54.31,4,4,0,0,1,1.21.82,3.44,3.44,0,0,1,1,2.44V4.69Z"/><path class="cls-1" d="M407.92,16V.14h2.26V16Z"/><path class="cls-1" d="M424.24,3.87a4.08,4.08,0,0,1,.33-1.69A3.47,3.47,0,0,1,425.46,1a3.78,3.78,0,0,1,1.21-.71A4.08,4.08,0,0,1,428,0a4.12,4.12,0,0,1,1.37.24,4,4,0,0,1,1.23.71,3.8,3.8,0,0,1,.87,1.22,4.08,4.08,0,0,1,.33,1.69v.8h-2.26v-.8a1.51,1.51,0,0,0-.45-1.21,1.69,1.69,0,0,0-2.16,0,1.51,1.51,0,0,0-.45,1.21v8.35a1.51,1.51,0,0,0,.45,1.21,1.59,1.59,0,0,0,1.08.39,1.61,1.61,0,0,0,1.08-.39,1.51,1.51,0,0,0,.45-1.21v-3h-1.8v-2h4.06v5a4,4,0,0,1-.33,1.71,3.49,3.49,0,0,1-.87,1.18,3.86,3.86,0,0,1-1.23.73,4.08,4.08,0,0,1-1.37.24,4.12,4.12,0,0,1-1.37-.24,3.66,3.66,0,0,1-1.21-.73,3.32,3.32,0,0,1-.89-1.18,4,4,0,0,1-.33-1.71Z"/><path class="cls-1" d="M445.73,16V.14h2.18l3.42,9.53h.05V.14h2.26V16h-2.13l-3.46-9.5h0V16Z"/><path class="cls-1" d="M467.66,16V.14h6.75V2.27h-4.48V6.91h3.91V9h-3.91v4.64h4.48v2.26h-6.75Z"/><path class="cls-1" d="M487.87,16V.14h3.64c2.66,0,4,1.55,4,4.64a5.89,5.89,0,0,1-.43,2.38,3.4,3.4,0,0,1-1.52,1.58L496,16h-2.41l-2.11-6.75h-1.35V16h-2.26Zm2.26-13.68V7.2h1.29a2.24,2.24,0,0,0,.95-.17,1.23,1.23,0,0,0,.55-.48,2.25,2.25,0,0,0,.25-.77,7.9,7.9,0,0,0,.07-1,6.51,6.51,0,0,0-.07-1.05,2,2,0,0,0-.27-.79,1.81,1.81,0,0,0-1.6-.62Z"/><path class="cls-1" d="M509.42,4.05V.14h1.78V4.05Z"/><path class="cls-1" d="M532.76,4.69h-2.27V4.18a2.34,2.34,0,0,0-.37-1.34,1.34,1.34,0,0,0-1.23-.57,1.45,1.45,0,0,0-.76.18,1.65,1.65,0,0,0-.47.44,1.73,1.73,0,0,0-.24.66,3.8,3.8,0,0,0-.07.77q0,.46,0,.78a1.47,1.47,0,0,0,.17.56,1.29,1.29,0,0,0,.39.42,3.44,3.44,0,0,0,.7.36l1.73.69a4.24,4.24,0,0,1,1.22.68,2.84,2.84,0,0,1,.73.9,4.29,4.29,0,0,1,.33,1.21,11.83,11.83,0,0,1,.09,1.54,8.26,8.26,0,0,1-.2,1.85,3.93,3.93,0,0,1-.64,1.45,3.29,3.29,0,0,1-1.22,1,4.29,4.29,0,0,1-1.84.35,4,4,0,0,1-1.53-.29,3.64,3.64,0,0,1-1.22-.8,3.92,3.92,0,0,1-.81-1.19,3.59,3.59,0,0,1-.3-1.48v-.84h2.27v.71a1.82,1.82,0,0,0,.37,1.12,1.43,1.43,0,0,0,1.23.5,2,2,0,0,0,.9-.17,1.22,1.22,0,0,0,.5-.48,1.69,1.69,0,0,0,.21-.74c0-.29,0-.61,0-1a9.58,9.58,0,0,0,0-1,1.68,1.68,0,0,0-.18-.64,1.21,1.21,0,0,0-.41-.4,5.47,5.47,0,0,0-.68-.33l-1.62-.67a3.62,3.62,0,0,1-2-1.59,5.5,5.5,0,0,1-.5-2.48,5.9,5.9,0,0,1,.24-1.69,4,4,0,0,1,.73-1.38,3.34,3.34,0,0,1,1.19-.92A3.94,3.94,0,0,1,529,0a3.69,3.69,0,0,1,1.54.31,4,4,0,0,1,1.21.82,3.44,3.44,0,0,1,1,2.44V4.69Z"/><path class="cls-1" d="M127.31,61.72V45.91h3.4a5.1,5.1,0,0,1,1.64.24,3.14,3.14,0,0,1,1.29.87,3.43,3.43,0,0,1,.8,1.46,9,9,0,0,1,.22,2.25,11.41,11.41,0,0,1-.12,1.8,3.86,3.86,0,0,1-.52,1.38,3.35,3.35,0,0,1-1.24,1.21,4.17,4.17,0,0,1-2,.43h-1.15v6.17ZM129.58,48v5.37h1.09a2.4,2.4,0,0,0,1.07-.2,1.26,1.26,0,0,0,.56-.56,2,2,0,0,0,.21-.82c0-.32,0-.69,0-1.09s0-.72,0-1.05a2.19,2.19,0,0,0-.2-.88,1.35,1.35,0,0,0-.53-.58,2.17,2.17,0,0,0-1-.2h-1.19Z"/><path class="cls-1" d="M148.21,49.64a4.08,4.08,0,0,1,.33-1.69,3.47,3.47,0,0,1,.89-1.22,3.78,3.78,0,0,1,1.21-.71,4.08,4.08,0,0,1,1.37-.24,4.12,4.12,0,0,1,1.37.24,4,4,0,0,1,1.23.71,3.8,3.8,0,0,1,.87,1.22,3.92,3.92,0,0,1,.33,1.69V58a4,4,0,0,1-.33,1.71,3.49,3.49,0,0,1-.87,1.18,3.86,3.86,0,0,1-1.23.73,4.08,4.08,0,0,1-1.37.24,4.12,4.12,0,0,1-1.37-.24,3.66,3.66,0,0,1-1.21-.73,3.32,3.32,0,0,1-.89-1.18,4,4,0,0,1-.33-1.71ZM150.47,58a1.51,1.51,0,0,0,.45,1.21,1.59,1.59,0,0,0,1.08.39,1.61,1.61,0,0,0,1.08-.39,1.51,1.51,0,0,0,.45-1.21V49.64a1.51,1.51,0,0,0-.45-1.21,1.69,1.69,0,0,0-2.16,0,1.51,1.51,0,0,0-.45,1.21Z"/><path class="cls-1" d="M169.79,61.72V45.91h3.64c2.66,0,4,1.55,4,4.64a5.89,5.89,0,0,1-.43,2.38,3.4,3.4,0,0,1-1.52,1.58l2.44,7.22h-2.4L173.41,55h-1.35v6.75h-2.27ZM172.05,48V53h1.29a2.24,2.24,0,0,0,.95-.17,1.23,1.23,0,0,0,.55-.48,2.25,2.25,0,0,0,.25-.77,7.9,7.9,0,0,0,.07-1,6.51,6.51,0,0,0-.07-1,2,2,0,0,0-.27-.79,1.81,1.81,0,0,0-1.6-.62Z"/><path class="cls-1" d="M192.32,61.72V48H189.7V45.91h7.5V48h-2.62V61.72Z"/><path class="cls-1" d="M210.19,61.72V45.91h6.75V48h-4.48v4.8h3.91V55h-3.91v6.75Z"/><path class="cls-1" d="M230.27,49.64A4.08,4.08,0,0,1,230.6,48a3.47,3.47,0,0,1,.89-1.22A3.78,3.78,0,0,1,232.7,46a4.08,4.08,0,0,1,1.37-.24,4.12,4.12,0,0,1,1.37.24,4,4,0,0,1,1.23.71,3.8,3.8,0,0,1,.87,1.22,4.08,4.08,0,0,1,.33,1.69V58a4,4,0,0,1-.33,1.71,3.49,3.49,0,0,1-.87,1.18,3.86,3.86,0,0,1-1.23.73,4.08,4.08,0,0,1-1.37.24,4.12,4.12,0,0,1-1.37-.24,3.66,3.66,0,0,1-1.21-.73,3.32,3.32,0,0,1-.89-1.18,4,4,0,0,1-.33-1.71ZM232.53,58A1.51,1.51,0,0,0,233,59.2a1.59,1.59,0,0,0,1.08.39,1.63,1.63,0,0,0,1.08-.39,1.51,1.51,0,0,0,.45-1.21V49.64a1.51,1.51,0,0,0-.45-1.21,1.61,1.61,0,0,0-1.08-.39,1.63,1.63,0,0,0-1.08.39,1.51,1.51,0,0,0-.45,1.21Z"/><path class="cls-1" d="M251.84,61.72V45.91h2.27V59.45h4.48v2.26h-6.75Z"/><path class="cls-1" d="M272.12,61.72V45.91h2.26V61.72Z"/><path class="cls-1" d="M288.44,49.64a4.08,4.08,0,0,1,.33-1.69,3.47,3.47,0,0,1,.89-1.22,3.78,3.78,0,0,1,1.21-.71,4.08,4.08,0,0,1,1.37-.24,4.12,4.12,0,0,1,1.37.24,4,4,0,0,1,1.23.71,3.8,3.8,0,0,1,.87,1.22,3.92,3.92,0,0,1,.33,1.69V58a4,4,0,0,1-.33,1.71,3.49,3.49,0,0,1-.87,1.18,3.86,3.86,0,0,1-1.23.73,4.08,4.08,0,0,1-1.37.24,4.12,4.12,0,0,1-1.37-.24,3.66,3.66,0,0,1-1.21-.73,3.32,3.32,0,0,1-.89-1.18,4,4,0,0,1-.33-1.71ZM290.7,58a1.51,1.51,0,0,0,.45,1.21,1.59,1.59,0,0,0,1.08.39,1.61,1.61,0,0,0,1.08-.39,1.51,1.51,0,0,0,.45-1.21V49.64a1.51,1.51,0,0,0-.45-1.21,1.69,1.69,0,0,0-2.16,0,1.51,1.51,0,0,0-.45,1.21Z"/><path class="cls-1" d="M333.46,50.46h-2.27V50a2.34,2.34,0,0,0-.37-1.34,1.34,1.34,0,0,0-1.23-.57,1.45,1.45,0,0,0-.76.18,1.65,1.65,0,0,0-.47.44,1.73,1.73,0,0,0-.24.66,3.8,3.8,0,0,0-.07.77q0,.46,0,.78a1.47,1.47,0,0,0,.17.56,1.29,1.29,0,0,0,.39.42,3.44,3.44,0,0,0,.7.36l1.73.69a4.24,4.24,0,0,1,1.22.68,2.84,2.84,0,0,1,.73.9,4.29,4.29,0,0,1,.33,1.21,11.83,11.83,0,0,1,.09,1.54,8.26,8.26,0,0,1-.2,1.85,3.93,3.93,0,0,1-.64,1.45,3.29,3.29,0,0,1-1.22,1,4.29,4.29,0,0,1-1.84.35,4,4,0,0,1-1.53-.29,3.64,3.64,0,0,1-1.22-.8,3.92,3.92,0,0,1-.81-1.19,3.59,3.59,0,0,1-.3-1.48v-.84H328V58a1.82,1.82,0,0,0,.37,1.12,1.43,1.43,0,0,0,1.23.5,2,2,0,0,0,.9-.17,1.22,1.22,0,0,0,.5-.48,1.69,1.69,0,0,0,.21-.74c0-.29,0-.61,0-1a9.58,9.58,0,0,0,0-1,1.68,1.68,0,0,0-.18-.64,1.21,1.21,0,0,0-.41-.4,5.47,5.47,0,0,0-.68-.33l-1.62-.67a3.62,3.62,0,0,1-2-1.59,5.5,5.5,0,0,1-.5-2.48,5.9,5.9,0,0,1,.24-1.69,4,4,0,0,1,.73-1.38,3.34,3.34,0,0,1,1.19-.92,3.94,3.94,0,0,1,1.72-.34,3.69,3.69,0,0,1,1.54.31,4,4,0,0,1,1.21.82,3.44,3.44,0,0,1,1,2.44v1.12Z"/><path class="cls-1" d="M347.21,61.72V45.91h2.26V61.72Z"/><path class="cls-1" d="M365.14,61.72V48h-2.62V45.91H370V48H367.4V61.72Z"/><path class="cls-1" d="M383,61.72V45.91h6.75V48h-4.48v4.64h3.91v2.13h-3.91v4.64h4.48v2.26H383Z"/><path class="cls-1" d="M403.09,61.72V59.46h2.26v2.26Z"/></g></g></svg>